REM DIRINDEX 1\5,1\2\6,1\2\7,1\3\8,1\3\9,1\4\10,1\4\11,1\4\12
REM DIRNAME folder01,folder02,folder03,folder04,folder05,folder06,folder07,folder08,folder09,folder10,folder11,folder12
TITLE ""
FILE "EJ_DB3000_5th_5C_24.mp3" MP3
  TRACK 01 AUDIO
    TITLE "0:"
    INDEX 01 00:00:00
  TRACK 02 AUDIO
    TITLE "9:cjc026_06211"
    INDEX 01 00:00:05
  TRACK 03 AUDIO
    TITLE "0:"
    INDEX 01 00:00:70
  TRACK 04 AUDIO
    TITLE "8:cjc026_06212"
    INDEX 01 00:01:21
  TRACK 05 AUDIO
    TITLE "0:"
    INDEX 01 00:02:42
  TRACK 06 AUDIO
    TITLE "9:cjc026_06213"
    INDEX 01 00:02:67
  TRACK 07 AUDIO
    TITLE "0:"
    INDEX 01 00:03:61
  TRACK 08 AUDIO
    TITLE "8:cjc026_06214"
    INDEX 01 00:04:11
  TRACK 09 AUDIO
    TITLE "0:"
    INDEX 01 00:05:12
  TRACK 10 AUDIO
    TITLE "9:cjc026_06215"
    INDEX 01 00:05:38
  TRACK 11 AUDIO
    TITLE "0:"
    INDEX 01 00:07:25
  TRACK 12 AUDIO
    TITLE "8:cjc026_06216"
    INDEX 01 00:07:51
  TRACK 13 AUDIO
    TITLE "0:"
    INDEX 01 00:08:64
  TRACK 14 AUDIO
    TITLE "9:cjc026_06217"
    INDEX 01 00:09:12
  TRACK 15 AUDIO
    TITLE "0:"
    INDEX 01 00:10:10
  TRACK 16 AUDIO
    TITLE "8:cjc026_06218"
    INDEX 01 00:10:37
  TRACK 17 AUDIO
    TITLE "0:"
    INDEX 01 00:12:12
  TRACK 18 AUDIO
    TITLE "9:cjc026_06219"
    INDEX 01 00:12:40
  TRACK 19 AUDIO
    TITLE "0:"
    INDEX 01 00:13:32
  TRACK 20 AUDIO
    TITLE "8:cjc026_06220"
    INDEX 01 00:13:57
  TRACK 21 AUDIO
    TITLE "0:"
    INDEX 01 00:14:56
  TRACK 22 AUDIO
    TITLE "9:cjc026_06221"
    INDEX 01 00:15:09
  TRACK 23 AUDIO
    TITLE "0:"
    INDEX 01 00:16:08
  TRACK 24 AUDIO
    TITLE "8:cjc026_06222"
    INDEX 01 00:16:34
  TRACK 25 AUDIO
    TITLE "0:"
    INDEX 01 00:17:39
  TRACK 26 AUDIO
    TITLE "9:cjc026_06223"
    INDEX 01 00:17:67
  TRACK 27 AUDIO
    TITLE "0:"
    INDEX 01 00:18:68
  TRACK 28 AUDIO
    TITLE "8:cjc026_06224"
    INDEX 01 00:19:18
  TRACK 29 AUDIO
    TITLE "0:"
    INDEX 01 00:20:28
  TRACK 30 AUDIO
    TITLE "9:cjc026_06225"
    INDEX 01 00:20:55
  TRACK 31 AUDIO
    TITLE "0:"
    INDEX 01 00:21:51
  TRACK 32 AUDIO
    TITLE "8:cjc026_06226"
    INDEX 01 00:22:03
  TRACK 33 AUDIO
    TITLE "0:"
    INDEX 01 00:22:74
  TRACK 34 AUDIO
    TITLE "9:cjc026_06227"
    INDEX 01 00:23:24
  TRACK 35 AUDIO
    TITLE "0:"
    INDEX 01 00:25:52
  TRACK 36 AUDIO
    TITLE "8:cjc026_06228"
    INDEX 01 00:26:05
  TRACK 37 AUDIO
    TITLE "0:"
    INDEX 01 00:27:65
  TRACK 38 AUDIO
    TITLE "9:cjc026_06229"
    INDEX 01 00:28:15
  TRACK 39 AUDIO
    TITLE "0:"
    INDEX 01 00:30:46
  TRACK 40 AUDIO
    TITLE "8:cjc026_06230"
    INDEX 01 00:30:73
  TRACK 41 AUDIO
    TITLE "0:"
    INDEX 01 00:32:07
  TRACK 42 AUDIO
    TITLE "9:cjc026_06231"
    INDEX 01 00:32:33
  TRACK 43 AUDIO
    TITLE "0:"
    INDEX 01 00:33:40
  TRACK 44 AUDIO
    TITLE "8:cjc026_06232"
    INDEX 01 00:33:68
  TRACK 45 AUDIO
    TITLE "0:"
    INDEX 01 00:34:67
  TRACK 46 AUDIO
    TITLE "9:cjc026_06233"
    INDEX 01 00:35:15
  TRACK 47 AUDIO
    TITLE "0:"
    INDEX 01 00:36:33
  TRACK 48 AUDIO
    TITLE "8:cjc026_06234"
    INDEX 01 00:36:60
  TRACK 49 AUDIO
    TITLE "0:"
    INDEX 01 00:38:73
  TRACK 50 AUDIO
    TITLE "9:cjc026_06235"
    INDEX 01 00:39:23
  TRACK 51 AUDIO
    TITLE "0:"
    INDEX 01 00:40:58
  TRACK 52 AUDIO
    TITLE "8:cjc026_06236"
    INDEX 01 00:41:10
  TRACK 53 AUDIO
    TITLE "0:"
    INDEX 01 00:43:19
  TRACK 54 AUDIO
    TITLE "9:cjc026_06237"
    INDEX 01 00:43:42
  TRACK 55 AUDIO
    TITLE "0:"
    INDEX 01 00:45:06
  TRACK 56 AUDIO
    TITLE "8:cjc026_06238"
    INDEX 01 00:45:33
  TRACK 57 AUDIO
    TITLE "0:"
    INDEX 01 00:47:44
  TRACK 58 AUDIO
    TITLE "9:cjc026_06239"
    INDEX 01 00:47:72
  TRACK 59 AUDIO
    TITLE "0:"
    INDEX 01 00:49:41
  TRACK 60 AUDIO
    TITLE "8:cjc026_06240"
    INDEX 01 00:49:67
  TRACK 61 AUDIO
    TITLE "0:"
    INDEX 01 00:52:00
